<?xml version="1.0"?>
<svg version="1.1" xmlns="http://www.w3.org/2000/svg" width="260px" height="50px" style=""><path fill="#ff6347" d="M6.04248046875,20.12939453125q0-0.205078125,0.196533203125-0.3076171875t0.42724609375-0.15380859375t0.418701171875-0.05126953125l0.18798828125,0q0.59814453125,0,0.863037109375,0.2734375t0.640869140625,0.70068359375q2.5634765625,3.70849609375,4.69970703125,7.630615234375t4.11865234375,7.938232421875q0.1708984375-4.6826171875,0.350341796875-9.425048828125t0.452880859375-9.407958984375q0-0.205078125,0.196533203125-0.341796875t0.4443359375-0.205078125t0.504150390625-0.08544921875t0.39306640625-0.01708984375q0.205078125,0,0.452880859375,0.01708984375t0.49560546875,0.1025390625t0.41015625,0.205078125t0.162353515625,0.32470703125q0.068359375,0.73486328125,0.076904296875,1.478271484375t0.008544921875,1.478271484375q0,5.5029296875-0.2392578125,10.78369140625t-0.2392578125,10.6640625l0,1.23046875q0,0.068359375-0.068359375,0.205078125q0.0341796875,0.13671875,0.1025390625,0.299072265625t0.068359375,0.230712890625q0,0.2734375-0.281982421875,0.41015625t-0.615234375,0.213623046875t-0.589599609375,0.076904296875t-0.18798828125,0q-0.87158203125,0-1.4697265625-0.478515625t-0.59814453125-1.14501953125q-1.2646484375-2.8369140625-2.520751953125-5.631103515625t-2.623291015625-5.562744140625q-0.87158203125-1.7431640625-1.751708984375-3.494873046875t-1.888427734375-3.392333984375q0.0341796875,0.0341796875,0.0341796875,0.1025390625q0.1708984375,1.708984375,0.367431640625,3.409423828125t0.299072265625,3.409423828125q0.068359375,1.4697265625,0.15380859375,2.9736328125t0.2734375,2.9736328125q0,0.56396484375-0.350341796875,0.7177734375t-0.811767578125,0.15380859375q-0.39306640625,0-0.743408203125-0.1025390625t-0.418701171875-0.5126953125q0-1.572265625-0.11962890625-3.341064453125t-0.22216796875-3.563232421875q-0.1708984375-2.37548828125-0.452880859375-4.827880859375t-0.281982421875-4.793701171875q0-0.1025390625,0.01708984375-0.213623046875t0.01708984375-0.247802734375q-0.1025390625-0.1708984375-0.230712890625-0.35888671875t-0.128173828125-0.341796875z M25.023657226562,16.64306640625q0-0.341796875,0.52978515625-0.487060546875t0.87158203125-0.145263671875q0.39306640625,0,0.863037109375,0.1025390625t0.572509765625,0.52978515625q0.49560546875,1.99951171875,0.760498046875,4.075927734375t0.401611328125,4.178466796875t0.22216796875,4.178466796875t0.18798828125,4.110107421875q0.46142578125-2.03369140625,0.948486328125-4.041748046875t1.273193359375-4.007568359375l0-1.3671875q0-0.87158203125,0.606689453125-1.256103515625t1.632080078125-0.384521484375q0.1025390625,0,0.469970703125,0.05126953125t0.367431640625,0.341796875q-0.068359375,0.205078125-0.162353515625,0.39306640625t-0.093994140625,0.41015625q0,2.59765625,0.615234375,5.323486328125t1.21337890625,5.306396484375q0.341796875-2.20458984375,0.7861328125-4.39208984375t0.9228515625-4.35791015625q0.63232421875-2.9052734375,0.965576171875-4.827880859375t0.63232421875-3.0419921875t0.6494140625-1.58935546875t0.982666015625-0.469970703125q0.39306640625-0.0341796875,0.73486328125,0.13671875t0.2734375,0.56396484375q-1.23046875,5.947265625-2.298583984375,11.9287109375t-2.178955078125,11.962890625q0,0.341796875,0.11962890625,0.80322265625t0.11962890625,0.8203125q0,0.205078125-0.18798828125,0.341796875t-0.452880859375,0.230712890625t-0.5810546875,0.128173828125t-0.555419921875,0.0341796875q-0.52978515625,0-1.11083984375-0.162353515625t-0.751953125-0.931396484375q-0.59814453125-2.666015625-1.102294921875-5.357666015625t-0.931396484375-5.426025390625q-0.13671875,0.63232421875-0.25634765625,1.28173828125t-0.22216796875,1.31591796875q-0.49560546875,2.9052734375-1.09375,5.810546875t-0.59814453125,5.87890625q0,0.73486328125-0.3076171875,0.948486328125t-1.04248046875,0.213623046875q-0.56396484375,0-0.95703125-0.18798828125q-0.3076171875-0.1708984375-0.5810546875-0.3076171875q-0.2392578125-0.13671875-0.435791015625-0.316162109375t-0.196533203125-0.350341796875q-0.2734375-3.70849609375-0.384521484375-7.36572265625t-0.247802734375-7.36572265625q-0.13671875-3.33251953125-0.401611328125-6.656494140625t-0.589599609375-6.605224609375z M45.679638671875,42.10693359375q0-0.1025390625,0.068359375-0.726318359375t0.179443359375-1.52099609375t0.247802734375-1.93115234375t0.2392578125-1.956787109375t0.179443359375-1.62353515625t0.076904296875-0.93994140625q-0.13671875-0.068359375-0.333251953125-0.196533203125t-0.196533203125-0.299072265625q0-0.2392578125,0.230712890625-0.384521484375t0.401611328125-0.213623046875q0.068359375-0.87158203125,0.1708984375-2.4267578125t0.316162109375-3.358154296875t0.59814453125-3.6572265625t1.016845703125-3.36669921875t1.52099609375-2.469482421875t2.1875-0.95703125t2.1533203125,0.8203125t1.392822265625,2.13623046875t0.8203125,2.92236328125t0.42724609375,3.19580078125t0.179443359375,2.9736328125t0.068359375,2.2216796875q0.0341796875,0.52978515625,0.25634765625,0.709228515625t0.487060546875,0.247802734375t0.478515625,0.15380859375t0.213623046875,0.42724609375q0,0.39306640625-0.478515625,0.546875t-0.751953125,0.18798828125q0.1708984375,2.13623046875,0.469970703125,4.2041015625t0.794677734375,4.169921875q0.068359375,0.39306640625,0.18798828125,0.794677734375t0.11962890625,0.777587890625q0,0.2734375-0.18798828125,0.452880859375t-0.487060546875,0.281982421875t-0.59814453125,0.13671875t-0.504150390625,0.0341796875q-0.76904296875,0-1.298828125-0.29052734375t-0.70068359375-1.11083984375q-0.46142578125-2.20458984375-0.90576171875-4.63134765625q-0.3759765625-2.10205078125-0.3759765625-4.08447265625q0-0.3076171875,0.01708984375-0.615234375q-1.435546875,0-2.88818359375,0.068359375t-2.78564453125,0.5126953125q-0.0341796875,0.46142578125-0.1708984375,1.7431640625t-0.3076171875,2.75146484375t-0.350341796875,2.811279296875t-0.213623046875,1.905517578125q-0.0341796875,0.2392578125-0.350341796875,0.452880859375t-0.68359375,0.230712890625t-0.6494140625-0.230712890625t-0.281982421875-0.880126953125z M48.875439453125,31.75048828125q1.3330078125-0.3076171875,2.674560546875-0.35888671875t2.708740234375-0.11962890625q-0.068359375-0.42724609375-0.0341796875-0.880126953125t0.0341796875-0.914306640625q0-1.00830078125-0.05126953125-2.34130859375t-0.15380859375-2.7001953125t-0.264892578125-2.691650390625t-0.367431640625-2.3583984375t-0.435791015625-1.649169921875t-0.504150390625-0.615234375q-0.52978515625,0.0341796875-0.999755859375,0.914306640625t-0.8544921875,2.23876953125t-0.70068359375,3.0419921875t-0.52978515625,3.289794921875t-0.350341796875,2.99072265625t-0.1708984375,2.1533203125z M62.943286132812,18.377685546875q-0.042724609375-0.521240234375,0.068359375-0.90576171875t0.4443359375-0.63232421875t1.068115234375-0.247802734375l2.75146484375,0q0.56396484375,0,1.478271484375,0.059814453125t1.96533203125,0.179443359375t2.093505859375,0.367431640625t1.905517578125,0.615234375t1.4013671875,0.90576171875t0.538330078125,1.273193359375q0,1.04248046875-0.606689453125,1.956787109375t-1.52099609375,1.649169921875t-1.93115234375,1.307373046875t-1.820068359375,1.033935546875q3.1787109375,0.70068359375,4.97314453125,2.9052734375t1.79443359375,5.5029296875q0,1.7431640625-0.66650390625,3.443603515625t-1.820068359375,3.067626953125t-2.734375,2.20458984375t-3.392333984375,0.83740234375q-0.2392578125,0-0.538330078125-0.05126953125t-0.546875-0.162353515625t-0.42724609375-0.316162109375t-0.179443359375-0.52978515625q0-1.50390625,1.62353515625-1.50390625q0.2734375,0,0.640869140625,0.076904296875t0.572509765625,0.316162109375q0.93994140625-0.39306640625,1.717529296875-1.24755859375t1.31591796875-1.905517578125t0.83740234375-2.20458984375t0.299072265625-2.093505859375q0-1.1279296875-0.333251953125-2.298583984375t-0.965576171875-2.17041015625t-1.55517578125-1.683349609375t-2.119140625-0.8544921875q-0.3076171875-0.0341796875-0.675048828125-0.05126953125l-0.73486328125-0.0341796875t-0.7177734375-0.1025390625t-0.606689453125-0.2734375q0.13671875,2.8369140625,0.350341796875,5.65673828125t0.572509765625,5.65673828125q0.13671875,0.13671875,0.18798828125,0.401611328125t0.08544921875,0.56396484375t0.0341796875,0.572509765625l0,0.46142578125q0,0.3076171875-0.205078125,0.504150390625t-0.487060546875,0.316162109375t-0.59814453125,0.15380859375t-0.555419921875,0.0341796875q-0.76904296875,0-1.17919921875-0.205078125t-0.5810546875-0.59814453125t-0.22216796875-0.897216796875t-0.08544921875-1.102294921875q-0.46142578125-4.76806640625-0.66650390625-9.43359375t-0.205078125-9.43359375q0-0.56396484375-0.042724609375-1.085205078125z M66.096362304687,17.6513671875q0,2.10205078125,0.13671875,4.212646484375t0.2392578125,4.212646484375q0.76904296875-0.46142578125,2.0166015625-1.085205078125t2.418212890625-1.375732421875t2.008056640625-1.65771484375t0.83740234375-1.96533203125q0-0.83740234375-0.9912109375-1.273193359375t-2.30712890625-0.6494140625t-2.572021484375-0.264892578125t-1.785888671875-0.15380859375z M81.0443359375,26.96533203125l0-1.31591796875l0-1.35009765625q0.01708984375-1.3671875,0.111083984375-2.623291015625t0.264892578125-2.093505859375q0.1025390625-0.46142578125,0.615234375-0.56396484375t0.888671875-0.1025390625q0.70068359375,0,1.033935546875,0.1708984375t0.435791015625,0.487060546875t0.08544921875,0.751953125t-0.01708984375,0.999755859375q0,0.80322265625-0.0341796875,2.23876953125t-0.05126953125,3.1787109375l0,0.87158203125q0,1.31591796875,0.0341796875,2.71728515625q0.05126953125,1.8798828125,0.196533203125,3.597412109375t0.401611328125,3.09326171875t0.7177734375,2.110595703125q0.73486328125-0.66650390625,1.4697265625-1.871337890625t1.4013671875-2.708740234375t1.273193359375-3.170166015625t1.102294921875-3.255615234375t0.845947265625-2.99072265625t0.521240234375-2.37548828125q0.2734375-1.4013671875,0.367431640625-2.85400390625t0.093994140625-3.22998046875q0.52978515625-0.63232421875,0.8203125-0.794677734375t0.9228515625-0.162353515625q0.3076171875,0,0.623779296875,0.05126953125t0.606689453125,0.2392578125l0.2392578125,0.3759765625l0,0.42724609375q0,3.1103515625-0.299072265625,6.314697265625t-0.63232421875,6.44287109375t-0.63232421875,6.494140625t-0.299072265625,6.468505859375q0,0.49560546875,0.042724609375,1.051025390625t0.179443359375,1.051025390625l-0.068359375,0.205078125q-0.2392578125,0.39306640625-0.7861328125,0.49560546875t-0.93994140625,0.1025390625q-0.83740234375,0-1.256103515625-0.247802734375t-0.555419921875-0.68359375t-0.11962890625-1.00830078125t0.01708984375-1.239013671875q0-2.30712890625,0.205078125-4.691162109375t0.49560546875-4.691162109375q-0.2734375,0.80322265625-0.6494140625,1.939697265625t-0.880126953125,2.27294921875t-1.170654296875,2.0849609375t-1.4697265625,1.358642578125l0.0341796875-0.0341796875l-0.13671875,0.068359375l0.0341796875,0q-0.49560546875,0.2734375-0.914306640625,0.367431640625t-0.982666015625,0.093994140625q-1.1279296875,0-1.871337890625-0.66650390625t-1.204833984375-1.717529296875t-0.68359375-2.3583984375t-0.316162109375-2.623291015625t-0.093994140625-2.503662109375l0-1.956787109375q0-0.93994140625-0.01708984375-2.23876953125z M87.1283203125,40.56884765625q0.0341796875,0,0.0341796875-0.0341796875l0.0341796875,0q-0.0341796875,0.0341796875-0.068359375,0.0341796875z M99.512817382812,40.654296875q0.0341796875-0.7177734375,0.0341796875-1.4013671875q0-2.47802734375,0.179443359375-4.93896484375t0.247802734375-4.93896484375q0.1025390625-2.8369140625,0.18798828125-5.62255859375t0.341796875-5.60546875q0.068359375-0.70068359375,0.401611328125-0.914306640625t0.999755859375-0.213623046875q0.3076171875,0,0.8203125,0.11962890625t0.5126953125,0.5810546875q0.2392578125,0.0341796875,0.478515625,0.0341796875q0.35888671875,0,0.73486328125-0.068359375q0.615234375-0.1025390625,1.256103515625-0.230712890625t1.273193359375-0.247802734375t1.21337890625-0.11962890625q0.13671875,0,0.384521484375,0.01708984375t0.49560546875,0.1025390625t0.418701171875,0.213623046875t0.1708984375,0.333251953125t-0.401611328125,0.367431640625t-1.051025390625,0.281982421875t-1.4013671875,0.205078125t-1.4697265625,0.145263671875t-1.273193359375,0.093994140625t-0.794677734375,0.0341796875l-0.0341796875,6.42578125l0.0341796875,3.19580078125q0.52978515625,0,1.58935546875-0.0341796875q0.42724609375-0.01708984375,0.8544921875-0.01708984375q0.6494140625,0,1.3330078125,0.0341796875q1.1279296875,0.05126953125,2.03369140625,0.205078125t1.14501953125,0.546875q0,0.2392578125-0.247802734375,0.384521484375t-0.555419921875,0.213623046875t-0.623779296875,0.08544921875t-0.452880859375,0.01708984375q-1.2646484375,0-2.54638671875-0.05126953125t-2.529296875-0.205078125q0,2.10205078125-0.111083984375,4.169921875t-0.111083984375,4.169921875q0,0.90576171875,0.01708984375,1.785888671875t0.205078125,1.751708984375q0.46142578125-0.0341796875,0.999755859375-0.08544921875t1.09375-0.128173828125t1.068115234375-0.128173828125t0.888671875-0.05126953125q0.205078125,0,0.555419921875,0.05126953125t0.7177734375,0.1708984375t0.63232421875,0.299072265625t0.264892578125,0.418701171875q0,0.2734375-0.504150390625,0.487060546875t-1.290283203125,0.341796875t-1.717529296875,0.179443359375t-1.802978515625,0.068359375t-1.572265625,0.01708984375l-0.9912109375,0q-0.93994140625,0-1.375732421875-0.350341796875t-0.606689453125-0.914306640625q-0.13671875-0.46142578125-0.11962890625-1.04248046875l0-0.2392578125z M113.72592773438,18.62548828125q0-0.205078125,0.162353515625-0.32470703125t0.384521484375-0.179443359375t0.452880859375-0.076904296875t0.401611328125-0.05126953125q0.76904296875-0.1025390625,1.99951171875-0.25634765625t2.520751953125-0.299072265625t2.503662109375-0.247802734375t1.9482421875-0.1025390625q0.341796875,0,0.8544921875,0.11962890625t0.546875,0.5810546875l-0.18798828125,0.32470703125q-1.162109375,2.6318359375-2.384033203125,5.408935546875t-2.30712890625,5.648193359375t-1.922607421875,5.79345703125t-1.14501953125,5.86181640625q0.2734375,0.0341796875,1.00830078125,0.068359375t1.666259765625,0.08544921875t1.922607421875,0.15380859375t1.820068359375,0.230712890625t1.35009765625,0.299072265625t0.521240234375,0.41015625q0,0.2734375-0.18798828125,0.435791015625t-0.469970703125,0.247802734375t-0.5810546875,0.128173828125t-0.504150390625,0.042724609375q-0.341796875,0-1.256103515625-0.01708984375t-2.05078125-0.076904296875t-2.366943359375-0.162353515625t-2.247314453125-0.25634765625t-1.6748046875-0.367431640625t-0.657958984375-0.487060546875q0-0.93994140625,0.418701171875-2.78564453125t1.102294921875-4.1357421875t1.52099609375-4.776611328125t1.69189453125-4.708251953125t1.62353515625-3.956298828125t1.298828125-2.537841796875q-1.708984375,0.1025390625-3.392333984375,0.299072265625t-3.392333984375,0.196533203125q-0.2392578125,0-0.615234375-0.068359375t-0.3759765625-0.46142578125z M129.34040527344,40.654296875q0.0341796875-0.7177734375,0.0341796875-1.4013671875q0-2.47802734375,0.179443359375-4.93896484375t0.247802734375-4.93896484375q0.1025390625-2.8369140625,0.18798828125-5.62255859375t0.341796875-5.60546875q0.068359375-0.70068359375,0.401611328125-0.914306640625t0.999755859375-0.213623046875q0.3076171875,0,0.8203125,0.11962890625t0.5126953125,0.5810546875q0.2392578125,0.0341796875,0.478515625,0.0341796875q0.35888671875,0,0.73486328125-0.068359375q0.615234375-0.1025390625,1.256103515625-0.230712890625t1.273193359375-0.247802734375t1.21337890625-0.11962890625q0.13671875,0,0.384521484375,0.01708984375t0.49560546875,0.1025390625t0.418701171875,0.213623046875t0.1708984375,0.333251953125t-0.401611328125,0.367431640625t-1.051025390625,0.281982421875t-1.4013671875,0.205078125t-1.4697265625,0.145263671875t-1.273193359375,0.093994140625t-0.794677734375,0.0341796875l-0.0341796875,6.42578125l0.0341796875,3.19580078125q0.52978515625,0,1.58935546875-0.0341796875q0.42724609375-0.01708984375,0.8544921875-0.01708984375q0.6494140625,0,1.3330078125,0.0341796875q1.1279296875,0.05126953125,2.03369140625,0.205078125t1.14501953125,0.546875q0,0.2392578125-0.247802734375,0.384521484375t-0.555419921875,0.213623046875t-0.623779296875,0.08544921875t-0.452880859375,0.01708984375q-1.2646484375,0-2.54638671875-0.05126953125t-2.529296875-0.205078125q0,2.10205078125-0.111083984375,4.169921875t-0.111083984375,4.169921875q0,0.90576171875,0.01708984375,1.785888671875t0.205078125,1.751708984375q0.46142578125-0.0341796875,0.999755859375-0.08544921875t1.09375-0.128173828125t1.068115234375-0.128173828125t0.888671875-0.05126953125q0.205078125,0,0.555419921875,0.05126953125t0.7177734375,0.1708984375t0.63232421875,0.299072265625t0.264892578125,0.418701171875q0,0.2734375-0.504150390625,0.487060546875t-1.290283203125,0.341796875t-1.717529296875,0.179443359375t-1.802978515625,0.068359375t-1.572265625,0.01708984375l-0.9912109375,0q-0.93994140625,0-1.375732421875-0.350341796875t-0.606689453125-0.914306640625q-0.13671875-0.46142578125-0.11962890625-1.04248046875l0-0.2392578125z M150.21291503906,30.41748046875q0-1.00830078125,0.111083984375-2.44384765625t0.41015625-2.99072265625t0.80322265625-3.09326171875t1.290283203125-2.71728515625t1.8798828125-1.86279296875q0.90576171875-0.56396484375,2.0849609375-0.56396484375q0.2392578125,0,0.49560546875,0.0341796875q2.9736328125,0.2734375,4.571533203125,1.358642578125t2.332763671875,2.75146484375t0.8544921875,3.7939453125t0.11962890625,4.486083984375q0,1.89697265625-0.350341796875,4.127197265625t-1.239013671875,4.161376953125t-2.452392578125,3.221435546875t-3.973388671875,1.290283203125q-1.4697265625,0-2.572021484375-0.538330078125t-1.871337890625-1.435546875t-1.2646484375-2.0849609375t-0.751953125-2.4609375t-0.367431640625-2.572021484375t-0.111083984375-2.4609375z M153.68215332031,29.6484375q0,0.73486328125,0.01708984375,1.802978515625t0.145263671875,2.247314453125t0.333251953125,2.349853515625t0.606689453125,2.127685546875t1.016845703125,1.572265625t1.48681640625,0.6494140625l0.08544921875,0q0.7861328125,0,1.4013671875-0.59814453125q0.6494140625-0.63232421875,1.153564453125-1.52099609375t0.87158203125-1.871337890625t0.657958984375-1.683349609375l-0.068359375,0.15380859375q0.49560546875-1.572265625,0.66650390625-3.221435546875t0.1708984375-3.255615234375q0-0.76904296875-0.1025390625-1.854248046875t-0.333251953125-2.264404296875t-0.59814453125-2.332763671875t-0.931396484375-2.008056640625t-1.31591796875-1.298828125q-0.546875-0.32470703125-1.21337890625-0.341796875q-0.25634765625,0-0.5126953125,0.05126953125q-0.87158203125,0.1708984375-1.48681640625,0.8544921875t-0.999755859375,1.683349609375t-0.589599609375,2.1875t-0.316162109375,2.392578125t-0.128173828125,2.30712890625t-0.01708984375,1.871337890625z M161.38967285156,34.912109375l0-0.0341796875l0,0.0341796875z M168.69848632813,31.75048828125q0-2.939453125,0.162353515625-5.810546875t0.401611328125-5.810546875q0.068359375-0.76904296875,0.08544921875-1.48681640625t0.162353515625-1.256103515625t0.5126953125-0.8544921875t1.136474609375-0.316162109375q0.49560546875,0,1.033935546875,0.1708984375t0.538330078125,0.80322265625q0,2.37548828125-0.196533203125,4.674072265625t-0.264892578125,4.571533203125q1.86279296875-2.10205078125,3.98193359375-3.922119140625t4.49462890625-3.597412109375q0.341796875-0.2392578125,0.87158203125-0.25634765625q0.1708984375,0,0.299072265625,0.01708984375t0.264892578125,0.05126953125q0.1708984375,0.068359375,0.350341796875,0.162353515625t0.179443359375,0.264892578125q0,0.13671875-0.15380859375,0.2392578125q-1.77734375,1.435546875-3.511962890625,2.92236328125t-3.306884765625,3.1787109375q0.205078125,0.39306640625,0.350341796875,0.73486328125t0.316162109375,0.73486328125q1.435546875,3.40087890625,2.452392578125,6.964111328125t2.161865234375,7.066650390625q0.1025390625,0.39306640625,0.299072265625,0.811767578125t0.367431640625,0.83740234375t0.299072265625,0.7861328125t0.128173828125,0.606689453125q0,0.3076171875-0.196533203125,0.487060546875t-0.452880859375,0.281982421875t-0.555419921875,0.13671875t-0.555419921875,0.0341796875q-0.59814453125,0-1.068115234375-0.1708984375t-0.743408203125-0.76904296875q-1.2646484375-4.033203125-2.435302734375-8.06640625t-2.366943359375-8.134765625q-0.39306640625,0.39306640625-0.7861328125,0.982666015625t-0.7177734375,1.085205078125q0,2.5634765625,0.11962890625,5.0927734375t0.41015625,5.0927734375q0.068359375,0.73486328125,0.230712890625,1.4697265625t0.162353515625,1.50390625q0,0.56396484375-0.5810546875,0.7861328125t-1.28173828125,0.22216796875q-0.76904296875,0-1.153564453125-0.15380859375t-0.546875-0.401611328125t-0.196533203125-0.546875t-0.1025390625-0.572509765625q-0.39306640625-2.7001953125-0.49560546875-5.340576171875t-0.1025390625-5.306396484375z M186.20993652344,40.654296875q0.0341796875-0.7177734375,0.0341796875-1.4013671875q0-2.47802734375,0.179443359375-4.93896484375t0.247802734375-4.93896484375q0.1025390625-2.8369140625,0.18798828125-5.62255859375t0.341796875-5.60546875q0.068359375-0.70068359375,0.401611328125-0.914306640625t0.999755859375-0.213623046875q0.3076171875,0,0.8203125,0.11962890625t0.5126953125,0.5810546875q0.2392578125,0.0341796875,0.478515625,0.0341796875q0.35888671875,0,0.73486328125-0.068359375q0.615234375-0.1025390625,1.256103515625-0.230712890625t1.273193359375-0.247802734375t1.21337890625-0.11962890625q0.13671875,0,0.384521484375,0.01708984375t0.49560546875,0.1025390625t0.418701171875,0.213623046875t0.1708984375,0.333251953125t-0.401611328125,0.367431640625t-1.051025390625,0.281982421875t-1.4013671875,0.205078125t-1.4697265625,0.145263671875t-1.273193359375,0.093994140625t-0.794677734375,0.0341796875l-0.0341796875,6.42578125l0.0341796875,3.19580078125q0.52978515625,0,1.58935546875-0.0341796875q0.42724609375-0.01708984375,0.8544921875-0.01708984375q0.6494140625,0,1.3330078125,0.0341796875q1.1279296875,0.05126953125,2.03369140625,0.205078125t1.14501953125,0.546875q0,0.2392578125-0.247802734375,0.384521484375t-0.555419921875,0.213623046875t-0.623779296875,0.08544921875t-0.452880859375,0.01708984375q-1.2646484375,0-2.54638671875-0.05126953125t-2.529296875-0.205078125q0,2.10205078125-0.111083984375,4.169921875t-0.111083984375,4.169921875q0,0.90576171875,0.01708984375,1.785888671875t0.205078125,1.751708984375q0.46142578125-0.0341796875,0.999755859375-0.08544921875t1.09375-0.128173828125t1.068115234375-0.128173828125t0.888671875-0.05126953125q0.205078125,0,0.555419921875,0.05126953125t0.7177734375,0.1708984375t0.63232421875,0.299072265625t0.264892578125,0.418701171875q0,0.2734375-0.504150390625,0.487060546875t-1.290283203125,0.341796875t-1.717529296875,0.179443359375t-1.802978515625,0.068359375t-1.572265625,0.01708984375l-0.9912109375,0q-0.93994140625,0-1.375732421875-0.350341796875t-0.606689453125-0.914306640625q-0.13671875-0.46142578125-0.11962890625-1.04248046875l0-0.2392578125z M200.4572265625,39.7314453125q-0.01708984375-0.5126953125-0.01708984375-1.025390625q0-1.6064453125,0.1708984375-3.22998046875q0.205078125-2.1533203125,0.2734375-4.23828125q0.068359375-2.44384765625,0.205078125-5.07568359375q0.08544921875-1.435546875,0.08544921875-2.8369140625q0-1.14501953125-0.05126953125-2.27294921875q0.1708984375-0.39306640625,0.452880859375-0.52978515625t0.709228515625-0.13671875q0.205078125,0,0.435791015625,0.0341796875t0.401611328125,0.1708984375q0.2392578125,0.0341796875,0.589599609375,0.068359375t0.538330078125,0.205078125q0.068359375,0.1025390625,0.350341796875,0.70068359375t0.66650390625,1.45263671875t0.80322265625,1.854248046875t0.80322265625,1.89697265625t0.66650390625,1.580810546875t0.350341796875,0.8544921875q1.6064453125-2.9052734375,3.14453125-5.972900390625t3.36669921875-5.784912109375q0.1708984375-0.2392578125,0.589599609375-0.350341796875t0.692138671875-0.111083984375q0.73486328125,0,1.068115234375,0.350341796875t0.435791015625,0.897216796875q0.068359375,0.341796875,0.08544921875,0.73486328125q0.01708984375,0.205078125-0.01708984375,0.42724609375q-0.068359375,0.63232421875-0.068359375,1.1962890625q0,3.98193359375-0.2734375,7.904052734375t-0.49560546875,7.921142578125q-0.0341796875,0.8203125-0.0341796875,1.708984375t0.0341796875,1.845703125q0.01708984375,0.341796875,0.01708984375,0.66650390625q0,1.50390625-0.25634765625,2.802734375q-0.2392578125,0.39306640625-0.7861328125,0.49560546875t-0.9228515625,0.1025390625q-0.80322265625,0-1.5380859375-0.3759765625l-0.18798828125-0.22216796875l-0.068359375-0.2734375t-0.0341796875-0.2734375q0-2.47802734375,0.179443359375-4.990234375t0.401611328125-5.015869140625t0.469970703125-4.998779296875t0.418701171875-4.990234375q-1.00830078125,1.6748046875-1.956787109375,3.409423828125t-1.785888671875,3.529052734375q-0.3076171875,0.70068359375-0.589599609375,1.50390625t-0.675048828125,1.435546875q-0.205078125,0.3076171875-0.692138671875,0.3759765625t-0.845947265625,0.068359375q-0.341796875,0-0.709228515625-0.11962890625t-0.504150390625-0.5126953125q-0.63232421875-1.93115234375-1.35009765625-3.77685546875t-1.45263671875-3.74267578125q0,1.2646484375,0.05126953125,3.272705078125t0.05126953125,4.161376953125t-0.068359375,4.11865234375t-0.32470703125,3.1103515625q-0.068359375,0.42724609375-0.555419921875,0.52978515625t-0.845947265625,0.1025390625q-0.2734375,0-0.521240234375-0.0341796875t-0.487060546875-0.13671875z M220.75432128906,42.2607421875q0.068359375-3.57177734375,0.299072265625-7.12646484375t0.401611328125-7.12646484375q0.0341796875-1.3671875,0.0341796875-2.486572265625t0.111083984375-1.939697265625t0.41015625-1.256103515625t0.999755859375-0.435791015625q0.59814453125,0,0.90576171875,0.1708984375t0.469970703125,0.435791015625t0.196533203125,0.59814453125t0.0341796875,0.675048828125q0,0.49560546875,0.0341796875,0.982666015625t0.0341796875,0.982666015625q0,3.60595703125-0.196533203125,7.19482421875t-0.196533203125,7.22900390625q0,0.52978515625,0.01708984375,1.068115234375t0.01708984375,1.102294921875q0,0.205078125-0.18798828125,0.341796875t-0.469970703125,0.230712890625t-0.59814453125,0.128173828125t-0.521240234375,0.0341796875q-0.2392578125,0-0.538330078125-0.0341796875t-0.5810546875-0.145263671875t-0.478515625-0.264892578125t-0.196533203125-0.35888671875z M221.71135253906,19.0869140625q0-0.1708984375,0.05126953125-0.384521484375t0.11962890625-0.384521484375q0.0341796875-0.205078125,0.1025390625-0.70068359375t0.247802734375-0.965576171875t0.49560546875-0.83740234375t0.897216796875-0.367431640625l0.32470703125,0q0.2734375,0.068359375,0.555419921875,0.1708984375t0.281982421875,0.49560546875q0,0.1708984375-0.01708984375,0.32470703125t-0.05126953125,0.341796875q-0.13671875,1.00830078125-0.264892578125,1.58935546875t-0.299072265625,0.880126953125t-0.435791015625,0.384521484375t-0.675048828125,0.11962890625q-0.13671875,0-0.367431640625-0.01708984375t-0.4443359375-0.08544921875t-0.367431640625-0.213623046875t-0.15380859375-0.350341796875z M228.28530273438,20.12939453125q0-0.205078125,0.196533203125-0.3076171875t0.42724609375-0.15380859375t0.418701171875-0.05126953125l0.18798828125,0q0.59814453125,0,0.863037109375,0.2734375t0.640869140625,0.70068359375q2.5634765625,3.70849609375,4.69970703125,7.630615234375t4.11865234375,7.938232421875q0.1708984375-4.6826171875,0.350341796875-9.425048828125t0.452880859375-9.407958984375q0-0.205078125,0.196533203125-0.341796875t0.4443359375-0.205078125t0.504150390625-0.08544921875t0.39306640625-0.01708984375q0.205078125,0,0.452880859375,0.01708984375t0.49560546875,0.1025390625t0.41015625,0.205078125t0.162353515625,0.32470703125q0.068359375,0.73486328125,0.076904296875,1.478271484375t0.008544921875,1.478271484375q0,5.5029296875-0.2392578125,10.78369140625t-0.2392578125,10.6640625l0,1.23046875q0,0.068359375-0.068359375,0.205078125q0.0341796875,0.13671875,0.1025390625,0.299072265625t0.068359375,0.230712890625q0,0.2734375-0.281982421875,0.41015625t-0.615234375,0.213623046875t-0.589599609375,0.076904296875t-0.18798828125,0q-0.87158203125,0-1.4697265625-0.478515625t-0.59814453125-1.14501953125q-1.2646484375-2.8369140625-2.520751953125-5.631103515625t-2.623291015625-5.562744140625q-0.87158203125-1.7431640625-1.751708984375-3.494873046875t-1.888427734375-3.392333984375q0.0341796875,0.0341796875,0.0341796875,0.1025390625q0.1708984375,1.708984375,0.367431640625,3.409423828125t0.299072265625,3.409423828125q0.068359375,1.4697265625,0.15380859375,2.9736328125t0.2734375,2.9736328125q0,0.56396484375-0.350341796875,0.7177734375t-0.811767578125,0.15380859375q-0.39306640625,0-0.743408203125-0.1025390625t-0.418701171875-0.5126953125q0-1.572265625-0.11962890625-3.341064453125t-0.22216796875-3.563232421875q-0.1708984375-2.37548828125-0.452880859375-4.827880859375t-0.281982421875-4.793701171875q0-0.1025390625,0.01708984375-0.213623046875t0.01708984375-0.247802734375q-0.1025390625-0.1708984375-0.230712890625-0.35888671875t-0.128173828125-0.341796875z M247.26647949219,42.2607421875q0.068359375-3.57177734375,0.299072265625-7.12646484375t0.401611328125-7.12646484375q0.0341796875-1.3671875,0.0341796875-2.486572265625t0.111083984375-1.939697265625t0.41015625-1.256103515625t0.999755859375-0.435791015625q0.59814453125,0,0.90576171875,0.1708984375t0.469970703125,0.435791015625t0.196533203125,0.59814453125t0.0341796875,0.675048828125q0,0.49560546875,0.0341796875,0.982666015625t0.0341796875,0.982666015625q0,3.60595703125-0.196533203125,7.19482421875t-0.196533203125,7.22900390625q0,0.52978515625,0.01708984375,1.068115234375t0.01708984375,1.102294921875q0,0.205078125-0.18798828125,0.341796875t-0.469970703125,0.230712890625t-0.59814453125,0.128173828125t-0.521240234375,0.0341796875q-0.2392578125,0-0.538330078125-0.0341796875t-0.5810546875-0.145263671875t-0.478515625-0.264892578125t-0.196533203125-0.35888671875z M248.22351074219,19.0869140625q0-0.1708984375,0.05126953125-0.384521484375t0.11962890625-0.384521484375q0.0341796875-0.205078125,0.1025390625-0.70068359375t0.247802734375-0.965576171875t0.49560546875-0.83740234375t0.897216796875-0.367431640625l0.32470703125,0q0.2734375,0.068359375,0.555419921875,0.1708984375t0.281982421875,0.49560546875q0,0.1708984375-0.01708984375,0.32470703125t-0.05126953125,0.341796875q-0.13671875,1.00830078125-0.264892578125,1.58935546875t-0.299072265625,0.880126953125t-0.435791015625,0.384521484375t-0.675048828125,0.11962890625q-0.13671875,0-0.367431640625-0.01708984375t-0.4443359375-0.08544921875t-0.367431640625-0.213623046875t-0.15380859375-0.350341796875z"/><path fill="#" d=""/></svg>
