<?xml version="1.0"?>
<svg version="1.1" xmlns="http://www.w3.org/2000/svg" width="400px" height="200px" style=""><path fill="#ff6347" d="M51.19140625,94.43359375q0-0.234375,0.224609375-0.3515625t0.48828125-0.17578125t0.478515625-0.05859375l0.21484375,0q0.68359375,0,0.986328125,0.3125t0.732421875,0.80078125q2.9296875,4.23828125,5.37109375,8.720703125t4.70703125,9.072265625q0.1953125-5.3515625,0.400390625-10.771484375t0.517578125-10.751953125q0-0.234375,0.224609375-0.390625t0.5078125-0.234375t0.576171875-0.09765625t0.44921875-0.01953125q0.234375,0,0.517578125,0.01953125t0.56640625,0.1171875t0.46875,0.234375t0.185546875,0.37109375q0.078125,0.83984375,0.087890625,1.689453125t0.009765625,1.689453125q0,6.2890625-0.2734375,12.32421875t-0.2734375,12.1875l0,1.40625q0,0.078125-0.078125,0.234375q0.0390625,0.15625,0.1171875,0.341796875t0.078125,0.263671875q0,0.3125-0.322265625,0.46875t-0.703125,0.244140625t-0.673828125,0.087890625t-0.21484375,0q-0.99609375,0-1.6796875-0.546875t-0.68359375-1.30859375q-1.4453125-3.2421875-2.880859375-6.435546875t-2.998046875-6.357421875q-0.99609375-1.9921875-2.001953125-3.994140625t-2.158203125-3.876953125q0.0390625,0.0390625,0.0390625,0.1171875q0.1953125,1.953125,0.419921875,3.896484375t0.341796875,3.896484375q0.078125,1.6796875,0.17578125,3.3984375t0.3125,3.3984375q0,0.64453125-0.400390625,0.8203125t-0.927734375,0.17578125q-0.44921875,0-0.849609375-0.1171875t-0.478515625-0.5859375q0-1.796875-0.13671875-3.818359375t-0.25390625-4.072265625q-0.1953125-2.71484375-0.517578125-5.517578125t-0.322265625-5.478515625q0-0.1171875,0.01953125-0.244140625t0.01953125-0.283203125q-0.1171875-0.1953125-0.263671875-0.41015625t-0.146484375-0.390625z M72.8841796875,90.44921875q0-0.390625,0.60546875-0.556640625t0.99609375-0.166015625q0.44921875,0,0.986328125,0.1171875t0.654296875,0.60546875q0.56640625,2.28515625,0.869140625,4.658203125t0.458984375,4.775390625t0.25390625,4.775390625t0.21484375,4.697265625q0.52734375-2.32421875,1.083984375-4.619140625t1.455078125-4.580078125l0-1.5625q0-0.99609375,0.693359375-1.435546875t1.865234375-0.439453125q0.1171875,0,0.537109375,0.05859375t0.419921875,0.390625q-0.078125,0.234375-0.185546875,0.44921875t-0.107421875,0.46875q0,2.96875,0.703125,6.083984375t1.38671875,6.064453125q0.390625-2.51953125,0.8984375-5.01953125t1.0546875-4.98046875q0.72265625-3.3203125,1.103515625-5.517578125t0.72265625-3.4765625t0.7421875-1.81640625t1.123046875-0.537109375q0.44921875-0.0390625,0.83984375,0.15625t0.3125,0.64453125q-1.40625,6.796875-2.626953125,13.6328125t-2.490234375,13.671875q0,0.390625,0.13671875,0.91796875t0.13671875,0.9375q0,0.234375-0.21484375,0.390625t-0.517578125,0.263671875t-0.6640625,0.146484375t-0.634765625,0.0390625q-0.60546875,0-1.26953125-0.185546875t-0.859375-1.064453125q-0.68359375-3.046875-1.259765625-6.123046875t-1.064453125-6.201171875q-0.15625,0.72265625-0.29296875,1.46484375t-0.25390625,1.50390625q-0.56640625,3.3203125-1.25,6.640625t-0.68359375,6.71875q0,0.83984375-0.3515625,1.083984375t-1.19140625,0.244140625q-0.64453125,0-1.09375-0.21484375q-0.3515625-0.1953125-0.6640625-0.3515625q-0.2734375-0.15625-0.498046875-0.361328125t-0.224609375-0.400390625q-0.3125-4.23828125-0.439453125-8.41796875t-0.283203125-8.41796875q-0.15625-3.80859375-0.458984375-7.607421875t-0.673828125-7.548828125z M96.491015625,119.55078125q0-0.1171875,0.078125-0.830078125t0.205078125-1.73828125t0.283203125-2.20703125t0.2734375-2.236328125t0.205078125-1.85546875t0.087890625-1.07421875q-0.15625-0.078125-0.380859375-0.224609375t-0.224609375-0.341796875q0-0.2734375,0.263671875-0.439453125t0.458984375-0.244140625q0.078125-0.99609375,0.1953125-2.7734375t0.361328125-3.837890625t0.68359375-4.1796875t1.162109375-3.84765625t1.73828125-2.822265625t2.5-1.09375t2.4609375,0.9375t1.591796875,2.44140625t0.9375,3.33984375t0.48828125,3.65234375t0.205078125,3.3984375t0.078125,2.5390625q0.0390625,0.60546875,0.29296875,0.810546875t0.556640625,0.283203125t0.546875,0.17578125t0.244140625,0.48828125q0,0.44921875-0.546875,0.625t-0.859375,0.21484375q0.1953125,2.44140625,0.537109375,4.8046875t0.908203125,4.765625q0.078125,0.44921875,0.21484375,0.908203125t0.13671875,0.888671875q0,0.3125-0.21484375,0.517578125t-0.556640625,0.322265625t-0.68359375,0.15625t-0.576171875,0.0390625q-0.87890625,0-1.484375-0.33203125t-0.80078125-1.26953125q-0.52734375-2.51953125-1.03515625-5.29296875q-0.4296875-2.40234375-0.4296875-4.66796875q0-0.3515625,0.01953125-0.703125q-1.640625,0-3.30078125,0.078125t-3.18359375,0.5859375q-0.0390625,0.52734375-0.1953125,1.9921875t-0.3515625,3.14453125t-0.400390625,3.212890625t-0.244140625,2.177734375q-0.0390625,0.2734375-0.400390625,0.517578125t-0.78125,0.263671875t-0.7421875-0.263671875t-0.322265625-1.005859375z M100.143359375,107.71484375q1.5234375-0.3515625,3.056640625-0.41015625t3.095703125-0.13671875q-0.078125-0.48828125-0.0390625-1.005859375t0.0390625-1.044921875q0-1.15234375-0.05859375-2.67578125t-0.17578125-3.0859375t-0.302734375-3.076171875t-0.419921875-2.6953125t-0.498046875-1.884765625t-0.576171875-0.703125q-0.60546875,0.0390625-1.142578125,1.044921875t-0.9765625,2.55859375t-0.80078125,3.4765625t-0.60546875,3.759765625t-0.400390625,3.41796875t-0.1953125,2.4609375z M116.2208984375,92.431640625q-0.048828125-0.595703125,0.078125-1.03515625t0.5078125-0.72265625t1.220703125-0.283203125l3.14453125,0q0.64453125,0,1.689453125,0.068359375t2.24609375,0.205078125t2.392578125,0.419921875t2.177734375,0.703125t1.6015625,1.03515625t0.615234375,1.455078125q0,1.19140625-0.693359375,2.236328125t-1.73828125,1.884765625t-2.20703125,1.494140625t-2.080078125,1.181640625q3.6328125,0.80078125,5.68359375,3.3203125t2.05078125,6.2890625q0,1.9921875-0.76171875,3.935546875t-2.080078125,3.505859375t-3.125,2.51953125t-3.876953125,0.95703125q-0.2734375,0-0.615234375-0.05859375t-0.625-0.185546875t-0.48828125-0.361328125t-0.205078125-0.60546875q0-1.71875,1.85546875-1.71875q0.3125,0,0.732421875,0.087890625t0.654296875,0.361328125q1.07421875-0.44921875,1.962890625-1.42578125t1.50390625-2.177734375t0.95703125-2.51953125t0.341796875-2.392578125q0-1.2890625-0.380859375-2.626953125t-1.103515625-2.48046875t-1.77734375-1.923828125t-2.421875-0.9765625q-0.3515625-0.0390625-0.771484375-0.05859375l-0.83984375-0.0390625t-0.8203125-0.1171875t-0.693359375-0.3125q0.15625,3.2421875,0.400390625,6.46484375t0.654296875,6.46484375q0.15625,0.15625,0.21484375,0.458984375t0.09765625,0.64453125t0.0390625,0.654296875l0,0.52734375q0,0.3515625-0.234375,0.576171875t-0.556640625,0.361328125t-0.68359375,0.17578125t-0.634765625,0.0390625q-0.87890625,0-1.34765625-0.234375t-0.6640625-0.68359375t-0.25390625-1.025390625t-0.09765625-1.259765625q-0.52734375-5.44921875-0.76171875-10.78125t-0.234375-10.78125q0-0.64453125-0.048828125-1.240234375z M119.8244140625,91.6015625q0,2.40234375,0.15625,4.814453125t0.2734375,4.814453125q0.87890625-0.52734375,2.3046875-1.240234375t2.763671875-1.572265625t2.294921875-1.89453125t0.95703125-2.24609375q0-0.95703125-1.1328125-1.455078125t-2.63671875-0.7421875t-2.939453125-0.302734375t-2.041015625-0.17578125z M136.9078125,102.24609375l0-1.50390625l0-1.54296875q0.01953125-1.5625,0.126953125-2.998046875t0.302734375-2.392578125q0.1171875-0.52734375,0.703125-0.64453125t1.015625-0.1171875q0.80078125,0,1.181640625,0.1953125t0.498046875,0.556640625t0.09765625,0.859375t-0.01953125,1.142578125q0,0.91796875-0.0390625,2.55859375t-0.05859375,3.6328125l0,0.99609375q0,1.50390625,0.0390625,3.10546875q0.05859375,2.1484375,0.224609375,4.111328125t0.458984375,3.53515625t0.8203125,2.412109375q0.83984375-0.76171875,1.6796875-2.138671875t1.6015625-3.095703125t1.455078125-3.623046875t1.259765625-3.720703125t0.966796875-3.41796875t0.595703125-2.71484375q0.3125-1.6015625,0.419921875-3.26171875t0.107421875-3.69140625q0.60546875-0.72265625,0.9375-0.908203125t1.0546875-0.185546875q0.3515625,0,0.712890625,0.05859375t0.693359375,0.2734375l0.2734375,0.4296875l0,0.48828125q0,3.5546875-0.341796875,7.216796875t-0.72265625,7.36328125t-0.72265625,7.421875t-0.341796875,7.392578125q0,0.56640625,0.048828125,1.201171875t0.205078125,1.201171875l-0.078125,0.234375q-0.2734375,0.44921875-0.8984375,0.56640625t-1.07421875,0.1171875q-0.95703125,0-1.435546875-0.283203125t-0.634765625-0.78125t-0.13671875-1.15234375t0.01953125-1.416015625q0-2.63671875,0.234375-5.361328125t0.56640625-5.361328125q-0.3125,0.91796875-0.7421875,2.216796875t-1.005859375,2.59765625t-1.337890625,2.3828125t-1.6796875,1.552734375l0.0390625-0.0390625l-0.15625,0.078125l0.0390625,0q-0.56640625,0.3125-1.044921875,0.419921875t-1.123046875,0.107421875q-1.2890625,0-2.138671875-0.76171875t-1.376953125-1.962890625t-0.78125-2.6953125t-0.361328125-2.998046875t-0.107421875-2.861328125l0-2.236328125q0-1.07421875-0.01953125-2.55859375z M143.8609375,117.79296875q0.0390625,0,0.0390625-0.0390625l0.0390625,0q-0.0390625,0.0390625-0.078125,0.0390625z M158.0146484375,117.890625q0.0390625-0.8203125,0.0390625-1.6015625q0-2.83203125,0.205078125-5.64453125t0.283203125-5.64453125q0.1171875-3.2421875,0.21484375-6.42578125t0.390625-6.40625q0.078125-0.80078125,0.458984375-1.044921875t1.142578125-0.244140625q0.3515625,0,0.9375,0.13671875t0.5859375,0.6640625q0.2734375,0.0390625,0.546875,0.0390625q0.41015625,0,0.83984375-0.078125q0.703125-0.1171875,1.435546875-0.263671875t1.455078125-0.283203125t1.38671875-0.13671875q0.15625,0,0.439453125,0.01953125t0.56640625,0.1171875t0.478515625,0.244140625t0.1953125,0.380859375t-0.458984375,0.419921875t-1.201171875,0.322265625t-1.6015625,0.234375t-1.6796875,0.166015625t-1.455078125,0.107421875t-0.908203125,0.0390625l-0.0390625,7.34375l0.0390625,3.65234375q0.60546875,0,1.81640625-0.0390625q0.48828125-0.01953125,0.9765625-0.01953125q0.7421875,0,1.5234375,0.0390625q1.2890625,0.05859375,2.32421875,0.234375t1.30859375,0.625q0,0.2734375-0.283203125,0.439453125t-0.634765625,0.244140625t-0.712890625,0.09765625t-0.517578125,0.01953125q-1.4453125,0-2.91015625-0.05859375t-2.890625-0.234375q0,2.40234375-0.126953125,4.765625t-0.126953125,4.765625q0,1.03515625,0.01953125,2.041015625t0.234375,2.001953125q0.52734375-0.0390625,1.142578125-0.09765625t1.25-0.146484375t1.220703125-0.146484375t1.015625-0.05859375q0.234375,0,0.634765625,0.05859375t0.8203125,0.1953125t0.72265625,0.341796875t0.302734375,0.478515625q0,0.3125-0.576171875,0.556640625t-1.474609375,0.390625t-1.962890625,0.205078125t-2.060546875,0.078125t-1.796875,0.01953125l-1.1328125,0q-1.07421875,0-1.572265625-0.400390625t-0.693359375-1.044921875q-0.15625-0.52734375-0.13671875-1.19140625l0-0.2734375z M174.258203125,92.71484375q0-0.234375,0.185546875-0.37109375t0.439453125-0.205078125t0.517578125-0.087890625t0.458984375-0.05859375q0.87890625-0.1171875,2.28515625-0.29296875t2.880859375-0.341796875t2.861328125-0.283203125t2.2265625-0.1171875q0.390625,0,0.9765625,0.13671875t0.625,0.6640625l-0.21484375,0.37109375q-1.328125,3.0078125-2.724609375,6.181640625t-2.63671875,6.455078125t-2.197265625,6.62109375t-1.30859375,6.69921875q0.3125,0.0390625,1.15234375,0.078125t1.904296875,0.09765625t2.197265625,0.17578125t2.080078125,0.263671875t1.54296875,0.341796875t0.595703125,0.46875q0,0.3125-0.21484375,0.498046875t-0.537109375,0.283203125t-0.6640625,0.146484375t-0.576171875,0.048828125q-0.390625,0-1.435546875-0.01953125t-2.34375-0.087890625t-2.705078125-0.185546875t-2.568359375-0.29296875t-1.9140625-0.419921875t-0.751953125-0.556640625q0-1.07421875,0.478515625-3.18359375t1.259765625-4.7265625t1.73828125-5.458984375t1.93359375-5.380859375t1.85546875-4.521484375t1.484375-2.900390625q-1.953125,0.1171875-3.876953125,0.341796875t-3.876953125,0.224609375q-0.2734375,0-0.703125-0.078125t-0.4296875-0.52734375z M192.1033203125,117.890625q0.0390625-0.8203125,0.0390625-1.6015625q0-2.83203125,0.205078125-5.64453125t0.283203125-5.64453125q0.1171875-3.2421875,0.21484375-6.42578125t0.390625-6.40625q0.078125-0.80078125,0.458984375-1.044921875t1.142578125-0.244140625q0.3515625,0,0.9375,0.13671875t0.5859375,0.6640625q0.2734375,0.0390625,0.546875,0.0390625q0.41015625,0,0.83984375-0.078125q0.703125-0.1171875,1.435546875-0.263671875t1.455078125-0.283203125t1.38671875-0.13671875q0.15625,0,0.439453125,0.01953125t0.56640625,0.1171875t0.478515625,0.244140625t0.1953125,0.380859375t-0.458984375,0.419921875t-1.201171875,0.322265625t-1.6015625,0.234375t-1.6796875,0.166015625t-1.455078125,0.107421875t-0.908203125,0.0390625l-0.0390625,7.34375l0.0390625,3.65234375q0.60546875,0,1.81640625-0.0390625q0.48828125-0.01953125,0.9765625-0.01953125q0.7421875,0,1.5234375,0.0390625q1.2890625,0.05859375,2.32421875,0.234375t1.30859375,0.625q0,0.2734375-0.283203125,0.439453125t-0.634765625,0.244140625t-0.712890625,0.09765625t-0.517578125,0.01953125q-1.4453125,0-2.91015625-0.05859375t-2.890625-0.234375q0,2.40234375-0.126953125,4.765625t-0.126953125,4.765625q0,1.03515625,0.01953125,2.041015625t0.234375,2.001953125q0.52734375-0.0390625,1.142578125-0.09765625t1.25-0.146484375t1.220703125-0.146484375t1.015625-0.05859375q0.234375,0,0.634765625,0.05859375t0.8203125,0.1953125t0.72265625,0.341796875t0.302734375,0.478515625q0,0.3125-0.576171875,0.556640625t-1.474609375,0.390625t-1.962890625,0.205078125t-2.060546875,0.078125t-1.796875,0.01953125l-1.1328125,0q-1.07421875,0-1.572265625-0.400390625t-0.693359375-1.044921875q-0.15625-0.52734375-0.13671875-1.19140625l0-0.2734375z M215.9576171875,106.19140625q0-1.15234375,0.126953125-2.79296875t0.46875-3.41796875t0.91796875-3.53515625t1.474609375-3.10546875t2.1484375-2.12890625q1.03515625-0.64453125,2.3828125-0.64453125q0.2734375,0,0.56640625,0.0390625q3.3984375,0.3125,5.224609375,1.552734375t2.666015625,3.14453125t0.9765625,4.3359375t0.13671875,5.126953125q0,2.16796875-0.400390625,4.716796875t-1.416015625,4.755859375t-2.802734375,3.681640625t-4.541015625,1.474609375q-1.6796875,0-2.939453125-0.615234375t-2.138671875-1.640625t-1.4453125-2.3828125t-0.859375-2.8125t-0.419921875-2.939453125t-0.126953125-2.8125z M219.9224609375,105.3125q0,0.83984375,0.01953125,2.060546875t0.166015625,2.568359375t0.380859375,2.685546875t0.693359375,2.431640625t1.162109375,1.796875t1.69921875,0.7421875l0.09765625,0q0.8984375,0,1.6015625-0.68359375q0.7421875-0.72265625,1.318359375-1.73828125t0.99609375-2.138671875t0.751953125-1.923828125l-0.078125,0.17578125q0.56640625-1.796875,0.76171875-3.681640625t0.1953125-3.720703125q0-0.87890625-0.1171875-2.119140625t-0.380859375-2.587890625t-0.68359375-2.666015625t-1.064453125-2.294921875t-1.50390625-1.484375q-0.625-0.37109375-1.38671875-0.390625q-0.29296875,0-0.5859375,0.05859375q-0.99609375,0.1953125-1.69921875,0.9765625t-1.142578125,1.923828125t-0.673828125,2.5t-0.361328125,2.734375t-0.146484375,2.63671875t-0.01953125,2.138671875z M228.7310546875,111.328125l0-0.0390625l0,0.0390625z M237.083984375,107.71484375q0-3.359375,0.185546875-6.640625t0.458984375-6.640625q0.078125-0.87890625,0.09765625-1.69921875t0.185546875-1.435546875t0.5859375-0.9765625t1.298828125-0.361328125q0.56640625,0,1.181640625,0.1953125t0.615234375,0.91796875q0,2.71484375-0.224609375,5.341796875t-0.302734375,5.224609375q2.12890625-2.40234375,4.55078125-4.482421875t5.13671875-4.111328125q0.390625-0.2734375,0.99609375-0.29296875q0.1953125,0,0.341796875,0.01953125t0.302734375,0.05859375q0.1953125,0.078125,0.400390625,0.185546875t0.205078125,0.302734375q0,0.15625-0.17578125,0.2734375q-2.03125,1.640625-4.013671875,3.33984375t-3.779296875,3.6328125q0.234375,0.44921875,0.400390625,0.83984375t0.361328125,0.83984375q1.640625,3.88671875,2.802734375,7.958984375t2.470703125,8.076171875q0.1171875,0.44921875,0.341796875,0.927734375t0.419921875,0.95703125t0.341796875,0.8984375t0.146484375,0.693359375q0,0.3515625-0.224609375,0.556640625t-0.517578125,0.322265625t-0.634765625,0.15625t-0.634765625,0.0390625q-0.68359375,0-1.220703125-0.1953125t-0.849609375-0.87890625q-1.4453125-4.609375-2.783203125-9.21875t-2.705078125-9.296875q-0.44921875,0.44921875-0.8984375,1.123046875t-0.8203125,1.240234375q0,2.9296875,0.13671875,5.8203125t0.46875,5.8203125q0.078125,0.83984375,0.263671875,1.6796875t0.185546875,1.71875q0,0.64453125-0.6640625,0.8984375t-1.46484375,0.25390625q-0.87890625,0-1.318359375-0.17578125t-0.625-0.458984375t-0.224609375-0.625t-0.1171875-0.654296875q-0.44921875-3.0859375-0.56640625-6.103515625t-0.1171875-6.064453125z M257.0970703125,117.890625q0.0390625-0.8203125,0.0390625-1.6015625q0-2.83203125,0.205078125-5.64453125t0.283203125-5.64453125q0.1171875-3.2421875,0.21484375-6.42578125t0.390625-6.40625q0.078125-0.80078125,0.458984375-1.044921875t1.142578125-0.244140625q0.3515625,0,0.9375,0.13671875t0.5859375,0.6640625q0.2734375,0.0390625,0.546875,0.0390625q0.41015625,0,0.83984375-0.078125q0.703125-0.1171875,1.435546875-0.263671875t1.455078125-0.283203125t1.38671875-0.13671875q0.15625,0,0.439453125,0.01953125t0.56640625,0.1171875t0.478515625,0.244140625t0.1953125,0.380859375t-0.458984375,0.419921875t-1.201171875,0.322265625t-1.6015625,0.234375t-1.6796875,0.166015625t-1.455078125,0.107421875t-0.908203125,0.0390625l-0.0390625,7.34375l0.0390625,3.65234375q0.60546875,0,1.81640625-0.0390625q0.48828125-0.01953125,0.9765625-0.01953125q0.7421875,0,1.5234375,0.0390625q1.2890625,0.05859375,2.32421875,0.234375t1.30859375,0.625q0,0.2734375-0.283203125,0.439453125t-0.634765625,0.244140625t-0.712890625,0.09765625t-0.517578125,0.01953125q-1.4453125,0-2.91015625-0.05859375t-2.890625-0.234375q0,2.40234375-0.126953125,4.765625t-0.126953125,4.765625q0,1.03515625,0.01953125,2.041015625t0.234375,2.001953125q0.52734375-0.0390625,1.142578125-0.09765625t1.25-0.146484375t1.220703125-0.146484375t1.015625-0.05859375q0.234375,0,0.634765625,0.05859375t0.8203125,0.1953125t0.72265625,0.341796875t0.302734375,0.478515625q0,0.3125-0.576171875,0.556640625t-1.474609375,0.390625t-1.962890625,0.205078125t-2.060546875,0.078125t-1.796875,0.01953125l-1.1328125,0q-1.07421875,0-1.572265625-0.400390625t-0.693359375-1.044921875q-0.15625-0.52734375-0.13671875-1.19140625l0-0.2734375z M273.3796875,116.8359375q-0.01953125-0.5859375-0.01953125-1.171875q0-1.8359375,0.1953125-3.69140625q0.234375-2.4609375,0.3125-4.84375q0.078125-2.79296875,0.234375-5.80078125q0.09765625-1.640625,0.09765625-3.2421875q0-1.30859375-0.05859375-2.59765625q0.1953125-0.44921875,0.517578125-0.60546875t0.810546875-0.15625q0.234375,0,0.498046875,0.0390625t0.458984375,0.1953125q0.2734375,0.0390625,0.673828125,0.078125t0.615234375,0.234375q0.078125,0.1171875,0.400390625,0.80078125t0.76171875,1.66015625t0.91796875,2.119140625t0.91796875,2.16796875t0.76171875,1.806640625t0.400390625,0.9765625q1.8359375-3.3203125,3.59375-6.826171875t3.84765625-6.611328125q0.1953125-0.2734375,0.673828125-0.400390625t0.791015625-0.126953125q0.83984375,0,1.220703125,0.400390625t0.498046875,1.025390625q0.078125,0.390625,0.09765625,0.83984375q0.01953125,0.234375-0.01953125,0.48828125q-0.078125,0.72265625-0.078125,1.3671875q0,4.55078125-0.3125,9.033203125t-0.56640625,9.052734375q-0.0390625,0.9375-0.0390625,1.953125t0.0390625,2.109375q0.01953125,0.390625,0.01953125,0.76171875q0,1.71875-0.29296875,3.203125q-0.2734375,0.44921875-0.8984375,0.56640625t-1.0546875,0.1171875q-0.91796875,0-1.7578125-0.4296875l-0.21484375-0.25390625l-0.078125-0.3125t-0.0390625-0.3125q0-2.83203125,0.205078125-5.703125t0.458984375-5.732421875t0.537109375-5.712890625t0.478515625-5.703125q-1.15234375,1.9140625-2.236328125,3.896484375t-2.041015625,4.033203125q-0.3515625,0.80078125-0.673828125,1.71875t-0.771484375,1.640625q-0.234375,0.3515625-0.791015625,0.4296875t-0.966796875,0.078125q-0.390625,0-0.810546875-0.13671875t-0.576171875-0.5859375q-0.72265625-2.20703125-1.54296875-4.31640625t-1.66015625-4.27734375q0,1.4453125,0.05859375,3.740234375t0.05859375,4.755859375t-0.078125,4.70703125t-0.37109375,3.5546875q-0.078125,0.48828125-0.634765625,0.60546875t-0.966796875,0.1171875q-0.3125,0-0.595703125-0.0390625t-0.556640625-0.15625z M296.5763671875,119.7265625q0.078125-4.08203125,0.341796875-8.14453125t0.458984375-8.14453125q0.0390625-1.5625,0.0390625-2.841796875t0.126953125-2.216796875t0.46875-1.435546875t1.142578125-0.498046875q0.68359375,0,1.03515625,0.1953125t0.537109375,0.498046875t0.224609375,0.68359375t0.0390625,0.771484375q0,0.56640625,0.0390625,1.123046875t0.0390625,1.123046875q0,4.12109375-0.224609375,8.22265625t-0.224609375,8.26171875q0,0.60546875,0.01953125,1.220703125t0.01953125,1.259765625q0,0.234375-0.21484375,0.390625t-0.537109375,0.263671875t-0.68359375,0.146484375t-0.595703125,0.0390625q-0.2734375,0-0.615234375-0.0390625t-0.6640625-0.166015625t-0.546875-0.302734375t-0.224609375-0.41015625z M297.6701171875,93.2421875q0-0.1953125,0.05859375-0.439453125t0.13671875-0.439453125q0.0390625-0.234375,0.1171875-0.80078125t0.283203125-1.103515625t0.56640625-0.95703125t1.025390625-0.419921875l0.37109375,0q0.3125,0.078125,0.634765625,0.1953125t0.322265625,0.56640625q0,0.1953125-0.01953125,0.37109375t-0.05859375,0.390625q-0.15625,1.15234375-0.302734375,1.81640625t-0.341796875,1.005859375t-0.498046875,0.439453125t-0.771484375,0.13671875q-0.15625,0-0.419921875-0.01953125t-0.5078125-0.09765625t-0.419921875-0.244140625t-0.17578125-0.400390625z M305.183203125,94.43359375q0-0.234375,0.224609375-0.3515625t0.48828125-0.17578125t0.478515625-0.05859375l0.21484375,0q0.68359375,0,0.986328125,0.3125t0.732421875,0.80078125q2.9296875,4.23828125,5.37109375,8.720703125t4.70703125,9.072265625q0.1953125-5.3515625,0.400390625-10.771484375t0.517578125-10.751953125q0-0.234375,0.224609375-0.390625t0.5078125-0.234375t0.576171875-0.09765625t0.44921875-0.01953125q0.234375,0,0.517578125,0.01953125t0.56640625,0.1171875t0.46875,0.234375t0.185546875,0.37109375q0.078125,0.83984375,0.087890625,1.689453125t0.009765625,1.689453125q0,6.2890625-0.2734375,12.32421875t-0.2734375,12.1875l0,1.40625q0,0.078125-0.078125,0.234375q0.0390625,0.15625,0.1171875,0.341796875t0.078125,0.263671875q0,0.3125-0.322265625,0.46875t-0.703125,0.244140625t-0.673828125,0.087890625t-0.21484375,0q-0.99609375,0-1.6796875-0.546875t-0.68359375-1.30859375q-1.4453125-3.2421875-2.880859375-6.435546875t-2.998046875-6.357421875q-0.99609375-1.9921875-2.001953125-3.994140625t-2.158203125-3.876953125q0.0390625,0.0390625,0.0390625,0.1171875q0.1953125,1.953125,0.419921875,3.896484375t0.341796875,3.896484375q0.078125,1.6796875,0.17578125,3.3984375t0.3125,3.3984375q0,0.64453125-0.400390625,0.8203125t-0.927734375,0.17578125q-0.44921875,0-0.849609375-0.1171875t-0.478515625-0.5859375q0-1.796875-0.13671875-3.818359375t-0.25390625-4.072265625q-0.1953125-2.71484375-0.517578125-5.517578125t-0.322265625-5.478515625q0-0.1171875,0.01953125-0.244140625t0.01953125-0.283203125q-0.1171875-0.1953125-0.263671875-0.41015625t-0.146484375-0.390625z M326.8759765625,119.7265625q0.078125-4.08203125,0.341796875-8.14453125t0.458984375-8.14453125q0.0390625-1.5625,0.0390625-2.841796875t0.126953125-2.216796875t0.46875-1.435546875t1.142578125-0.498046875q0.68359375,0,1.03515625,0.1953125t0.537109375,0.498046875t0.224609375,0.68359375t0.0390625,0.771484375q0,0.56640625,0.0390625,1.123046875t0.0390625,1.123046875q0,4.12109375-0.224609375,8.22265625t-0.224609375,8.26171875q0,0.60546875,0.01953125,1.220703125t0.01953125,1.259765625q0,0.234375-0.21484375,0.390625t-0.537109375,0.263671875t-0.68359375,0.146484375t-0.595703125,0.0390625q-0.2734375,0-0.615234375-0.0390625t-0.6640625-0.166015625t-0.546875-0.302734375t-0.224609375-0.41015625z M327.9697265625,93.2421875q0-0.1953125,0.05859375-0.439453125t0.13671875-0.439453125q0.0390625-0.234375,0.1171875-0.80078125t0.283203125-1.103515625t0.56640625-0.95703125t1.025390625-0.419921875l0.37109375,0q0.3125,0.078125,0.634765625,0.1953125t0.322265625,0.56640625q0,0.1953125-0.01953125,0.37109375t-0.05859375,0.390625q-0.15625,1.15234375-0.302734375,1.81640625t-0.341796875,1.005859375t-0.498046875,0.439453125t-0.771484375,0.13671875q-0.15625,0-0.419921875-0.01953125t-0.5078125-0.09765625t-0.419921875-0.244140625t-0.17578125-0.400390625z"/><path fill="#" d=""/></svg>
